<svg width="9" height="9" viewBox="0 0 9 9" fill="none" xmlns="http://www.w3.org/2000/svg">
<path d="M3.20589 7.62615C3.11501 7.53525 3.06396 7.41198 3.06396 7.28345C3.06396 7.15492 3.11501 7.03165 3.20589 6.94075L5.60526 4.54138L3.20589 2.14201C3.11759 2.05059 3.06873 1.92815 3.06984 1.80106C3.07094 1.67396 3.12192 1.55239 3.21179 1.46252C3.30166 1.37265 3.42324 1.32167 3.55033 1.32057C3.67742 1.31946 3.79986 1.36832 3.89128 1.45662L6.63336 4.19868C6.72423 4.28958 6.77528 4.41285 6.77528 4.54138C6.77528 4.66991 6.72423 4.79318 6.63336 4.88408L3.89128 7.62615C3.80038 7.71702 3.67711 7.76807 3.54858 7.76807C3.42005 7.76807 3.29678 7.71702 3.20589 7.62615V7.62615Z" fill="#D5DBE1"/>
</svg>
