<svg width="15" height="15" viewBox="0 0 15 15" fill="none" xmlns="http://www.w3.org/2000/svg">
<path d="M10.038 1.53375C10.2138 1.70956 10.3125 1.94797 10.3125 2.19656C10.3125 2.44515 10.2138 2.68356 10.038 2.85937L5.39739 7.49998L10.038 12.1406C10.2088 12.3174 10.3033 12.5542 10.3011 12.8C10.299 13.0458 10.2004 13.281 10.0266 13.4548C9.85277 13.6286 9.61764 13.7272 9.37183 13.7294C9.12602 13.7315 8.8892 13.637 8.71239 13.4662L3.40895 8.1628C3.2332 7.98699 3.13446 7.74858 3.13446 7.49998C3.13446 7.25139 3.2332 7.01298 3.40895 6.83717L8.71239 1.53375C8.8882 1.358 9.12661 1.25926 9.3752 1.25926C9.62379 1.25926 9.86221 1.358 10.038 1.53375V1.53375Z" fill="#D5DBE1"/>
</svg>
