<svg width="10" height="9" viewBox="0 0 10 9" fill="none" xmlns="http://www.w3.org/2000/svg">
<path d="M1.67238 3.29494C1.76934 3.19801 1.90082 3.14355 2.03792 3.14355C2.17502 3.14355 2.30651 3.19801 2.40347 3.29494L4.96279 5.85427L7.52212 3.29494C7.61964 3.20075 7.75024 3.14864 7.88581 3.14982C8.02137 3.151 8.15105 3.20537 8.24691 3.30123C8.34278 3.3971 8.39715 3.52678 8.39833 3.66234C8.39951 3.79791 8.34739 3.92851 8.25321 4.02603L5.32834 6.95091C5.23138 7.04784 5.09989 7.10229 4.96279 7.10229C4.82569 7.10229 4.69421 7.04784 4.59725 6.95091L1.67238 4.02603C1.57545 3.92907 1.521 3.79758 1.521 3.66048C1.521 3.52338 1.57545 3.3919 1.67238 3.29494V3.29494Z" fill="#696C71"/>
</svg>
