<svg width="10" height="9" viewBox="0 0 10 9" fill="none" xmlns="http://www.w3.org/2000/svg">
<path d="M1.5879 3.29494C1.68486 3.19801 1.81635 3.14355 1.95345 3.14355C2.09055 3.14355 2.22203 3.19801 2.31899 3.29494L4.87832 5.85427L7.43765 3.29494C7.53516 3.20075 7.66577 3.14864 7.80133 3.14982C7.9369 3.151 8.06658 3.20537 8.16244 3.30123C8.2583 3.3971 8.31268 3.52678 8.31386 3.66234C8.31503 3.79791 8.26292 3.92851 8.16874 4.02603L5.24387 6.95091C5.14691 7.04784 5.01542 7.10229 4.87832 7.10229C4.74122 7.10229 4.60974 7.04784 4.51278 6.95091L1.5879 4.02603C1.49098 3.92907 1.43652 3.79758 1.43652 3.66048C1.43652 3.52338 1.49098 3.3919 1.5879 3.29494V3.29494Z" fill="#696C71"/>
</svg>
