<svg width="15" height="15" viewBox="0 0 15 15" fill="none" xmlns="http://www.w3.org/2000/svg">
<path d="M4.96199 13.4663C4.78623 13.2904 4.6875 13.052 4.6875 12.8034C4.6875 12.5548 4.78623 12.3164 4.96199 12.1406L9.60261 7.50002L4.96199 2.8594C4.79121 2.68259 4.69672 2.44577 4.69886 2.19996C4.70099 1.95415 4.79959 1.71902 4.97341 1.5452C5.14723 1.37138 5.38236 1.27278 5.62817 1.27065C5.87398 1.26851 6.1108 1.36301 6.28761 1.53378L11.5911 6.8372C11.7668 7.01301 11.8655 7.25142 11.8655 7.50002C11.8655 7.74861 11.7668 7.98702 11.5911 8.16283L6.28761 13.4663C6.1118 13.642 5.87339 13.7407 5.6248 13.7407C5.37621 13.7407 5.13779 13.642 4.96199 13.4663V13.4663Z" fill="#D5DBE1"/>
</svg>
