<svg width="9" height="9" viewBox="0 0 9 9" fill="none" xmlns="http://www.w3.org/2000/svg">
<path d="M5.73357 1.45662C5.82444 1.54752 5.87549 1.67078 5.87549 1.79931C5.87549 1.92785 5.82444 2.05111 5.73357 2.14201L3.33419 4.54138L5.73357 6.94075C5.82186 7.03217 5.87072 7.15461 5.86962 7.28171C5.86851 7.4088 5.81753 7.53037 5.72766 7.62024C5.63779 7.71012 5.51622 7.76109 5.38913 7.7622C5.26203 7.7633 5.13959 7.71444 5.04817 7.62615L2.3061 4.88408C2.21522 4.79318 2.16418 4.66991 2.16418 4.54138C2.16418 4.41285 2.21522 4.28958 2.3061 4.19869L5.04817 1.45662C5.13907 1.36575 5.26234 1.3147 5.39087 1.3147C5.5194 1.3147 5.64267 1.36575 5.73357 1.45662V1.45662Z" fill="#D5DBE1"/>
</svg>
