<svg width="15" height="14" viewBox="0 0 15 14" fill="none" xmlns="http://www.w3.org/2000/svg">
<path d="M6.53408 3.10734C6.53408 2.48864 7.03563 1.98709 7.65433 1.98709C8.27302 1.98709 8.77458 2.48864 8.77458 3.10734C10.0854 3.72714 10.9471 5.01974 11.0151 6.46808V8.14845C11.1006 8.85465 11.5163 9.4783 12.1353 9.82882H3.17334C3.79234 9.4783 4.2081 8.85465 4.29359 8.14845V6.46808C4.36157 5.01974 5.2233 3.72714 6.53408 3.10734" stroke="#4B465C" stroke-width="1.03407" stroke-linecap="round" stroke-linejoin="round"/>
<path d="M6.53408 3.10734C6.53408 2.48864 7.03563 1.98709 7.65433 1.98709C8.27302 1.98709 8.77458 2.48864 8.77458 3.10734C10.0854 3.72714 10.9471 5.01974 11.0151 6.46808V8.14845C11.1006 8.85465 11.5163 9.4783 12.1353 9.82882H3.17334C3.79234 9.4783 4.2081 8.85465 4.29359 8.14845V6.46808C4.36157 5.01974 5.2233 3.72714 6.53408 3.10734" stroke="white" stroke-opacity="0.2" stroke-width="1.03407" stroke-linecap="round" stroke-linejoin="round"/>
<path d="M5.97363 9.82883V10.389C5.97363 11.317 6.72596 12.0693 7.654 12.0693C8.58205 12.0693 9.33437 11.317 9.33437 10.389V9.82883" stroke="#4B465C" stroke-width="1.03407" stroke-linecap="round" stroke-linejoin="round"/>
<path d="M5.97363 9.82883V10.389C5.97363 11.317 6.72596 12.0693 7.654 12.0693C8.58205 12.0693 9.33437 11.317 9.33437 10.389V9.82883" stroke="white" stroke-opacity="0.2" stroke-width="1.03407" stroke-linecap="round" stroke-linejoin="round"/>
</svg>
