<svg width="14" height="14" viewBox="0 0 14 14" fill="none" xmlns="http://www.w3.org/2000/svg">
<path d="M10.5865 10.5425H4.12355C3.82733 10.5425 3.58497 10.3001 3.58497 10.0039V3.54091C3.58497 3.24469 3.82733 3.00233 4.12355 3.00233H10.5865C10.8827 3.00233 11.1251 3.24469 11.1251 3.54091V10.0039C11.1251 10.3001 10.8827 10.5425 10.5865 10.5425ZM11.1251 1.92517H3.58497C2.99253 1.92517 2.50781 2.40989 2.50781 3.00233V10.5425C2.50781 11.1349 2.99253 11.6196 3.58497 11.6196H11.1251C11.7175 11.6196 12.2023 11.1349 12.2023 10.5425V3.00233C12.2023 2.40989 11.7175 1.92517 11.1251 1.92517Z" fill="#40464C"/>
</svg>
