<svg width="14" height="14" viewBox="0 0 14 14" fill="none" xmlns="http://www.w3.org/2000/svg">
<path d="M10.1984 10.4859H3.99398C3.70961 10.4859 3.47695 10.2532 3.47695 9.96881V3.76437C3.47695 3.48 3.70961 3.24733 3.99398 3.24733H10.1984C10.4828 3.24733 10.7155 3.48 10.7155 3.76437V9.96881C10.7155 10.2532 10.4828 10.4859 10.1984 10.4859ZM10.7155 2.21326H3.47695C2.9082 2.21326 2.44287 2.67859 2.44287 3.24733V10.4859C2.44287 11.0546 2.9082 11.5199 3.47695 11.5199H10.7155C11.2842 11.5199 11.7495 11.0546 11.7495 10.4859V3.24733C11.7495 2.67859 11.2842 2.21326 10.7155 2.21326Z" fill="#9FACB2"/>
</svg>
