<svg width="14" height="13" viewBox="0 0 14 13" fill="none" xmlns="http://www.w3.org/2000/svg">
<path d="M10.1984 9.87678H3.99398C3.70961 9.87678 3.47695 9.64411 3.47695 9.35974V3.1553C3.47695 2.87093 3.70961 2.63826 3.99398 2.63826H10.1984C10.4828 2.63826 10.7155 2.87093 10.7155 3.1553V9.35974C10.7155 9.64411 10.4828 9.87678 10.1984 9.87678ZM10.7155 1.60419H3.47695C2.9082 1.60419 2.44287 2.06952 2.44287 2.63826V9.87678C2.44287 10.4455 2.9082 10.9109 3.47695 10.9109H10.7155C11.2842 10.9109 11.7495 10.4455 11.7495 9.87678V2.63826C11.7495 2.06952 11.2842 1.60419 10.7155 1.60419Z" fill="#9FACB2"/>
</svg>
