<svg width="14" height="13" viewBox="0 0 14 13" fill="none" xmlns="http://www.w3.org/2000/svg">
<path d="M10.1984 10.0874H3.99398C3.70961 10.0874 3.47695 9.85475 3.47695 9.57038V3.36593C3.47695 3.08156 3.70961 2.84889 3.99398 2.84889H10.1984C10.4828 2.84889 10.7155 3.08156 10.7155 3.36593V9.57038C10.7155 9.85475 10.4828 10.0874 10.1984 10.0874ZM10.7155 1.81482H3.47695C2.9082 1.81482 2.44287 2.28015 2.44287 2.84889V10.0874C2.44287 10.6562 2.9082 11.1215 3.47695 11.1215H10.7155C11.2842 11.1215 11.7495 10.6562 11.7495 10.0874V2.84889C11.7495 2.28015 11.2842 1.81482 10.7155 1.81482Z" fill="#9FACB2"/>
</svg>
