<svg width="13" height="13" viewBox="0 0 13 13" fill="none" xmlns="http://www.w3.org/2000/svg">
<path d="M10.3971 1.80725H3.15859C2.58985 1.80725 2.12451 2.27258 2.12451 2.84133V10.0798C2.12451 10.6486 2.58985 11.1139 3.15859 11.1139H10.3971C10.9658 11.1139 11.4312 10.6486 11.4312 10.0798V2.84133C11.4312 2.27258 10.9658 1.80725 10.3971 1.80725ZM6.11087 8.67868C6.06304 8.72661 6.00622 8.76463 5.94367 8.79058C5.88112 8.81652 5.81407 8.82988 5.74636 8.82988C5.67864 8.82988 5.61159 8.81652 5.54904 8.79058C5.4865 8.76463 5.42968 8.72661 5.38185 8.67868L3.52568 6.82251C3.47781 6.77464 3.43984 6.71782 3.41394 6.65527C3.38803 6.59273 3.3747 6.5257 3.3747 6.458C3.3747 6.3903 3.38803 6.32327 3.41394 6.26073C3.43984 6.19819 3.47781 6.14136 3.52568 6.09349C3.57355 6.04562 3.63038 6.00765 3.69292 5.98174C3.75546 5.95584 3.8225 5.9425 3.89019 5.9425C3.95789 5.9425 4.02492 5.95584 4.08747 5.98174C4.15001 6.00765 4.20684 6.04562 4.2547 6.09349L5.74377 7.58256L9.30099 4.02534C9.39766 3.92867 9.52878 3.87435 9.6655 3.87435C9.80222 3.87435 9.93334 3.92867 10.03 4.02534C10.1267 4.12201 10.181 4.25313 10.181 4.38985C10.181 4.52657 10.1267 4.65769 10.03 4.75436L6.11087 8.67868V8.67868Z" fill="#3B8BEA"/>
</svg>
