<svg width="13" height="13" viewBox="0 0 13 13" fill="none" xmlns="http://www.w3.org/2000/svg">
<path d="M10.3971 1.81482H3.15859C2.58985 1.81482 2.12451 2.28015 2.12451 2.84889V10.0874C2.12451 10.6562 2.58985 11.1215 3.15859 11.1215H10.3971C10.9658 11.1215 11.4312 10.6562 11.4312 10.0874V2.84889C11.4312 2.28015 10.9658 1.81482 10.3971 1.81482ZM6.11087 8.68624C6.06304 8.73417 6.00622 8.7722 5.94367 8.79815C5.88112 8.82409 5.81407 8.83745 5.74636 8.83745C5.67864 8.83745 5.61159 8.82409 5.54904 8.79815C5.4865 8.7722 5.42968 8.73417 5.38185 8.68624L3.52568 6.83008C3.47781 6.78221 3.43984 6.72538 3.41394 6.66284C3.38803 6.6003 3.3747 6.53326 3.3747 6.46557C3.3747 6.39787 3.38803 6.33084 3.41394 6.2683C3.43984 6.20575 3.47781 6.14893 3.52568 6.10106C3.57355 6.05319 3.63038 6.01522 3.69292 5.98931C3.75546 5.96341 3.8225 5.95007 3.89019 5.95007C3.95789 5.95007 4.02492 5.96341 4.08747 5.98931C4.15001 6.01522 4.20684 6.05319 4.2547 6.10106L5.74377 7.59012L9.30099 4.03291C9.39766 3.93623 9.52878 3.88192 9.6655 3.88192C9.80222 3.88192 9.93334 3.93623 10.03 4.03291C10.1267 4.12958 10.181 4.2607 10.181 4.39742C10.181 4.53414 10.1267 4.66526 10.03 4.76193L6.11087 8.68624V8.68624Z" fill="#3B8BEA"/>
</svg>
