<svg width="25" height="25" viewBox="0 0 25 25" fill="none" xmlns="http://www.w3.org/2000/svg">
<path d="M18.75 19.7917H6.25C5.67708 19.7917 5.20833 19.3229 5.20833 18.75V6.25C5.20833 5.67708 5.67708 5.20833 6.25 5.20833H18.75C19.3229 5.20833 19.7917 5.67708 19.7917 6.25V18.75C19.7917 19.3229 19.3229 19.7917 18.75 19.7917ZM19.7917 3.125H5.20833C4.0625 3.125 3.125 4.0625 3.125 5.20833V19.7917C3.125 20.9375 4.0625 21.875 5.20833 21.875H19.7917C20.9375 21.875 21.875 20.9375 21.875 19.7917V5.20833C21.875 4.0625 20.9375 3.125 19.7917 3.125Z" fill="#40464C"/>
</svg>
