<svg width="13" height="13" viewBox="0 0 13 13" fill="none" xmlns="http://www.w3.org/2000/svg">
<path d="M10.3971 2.01025H3.15859C2.58985 2.01025 2.12451 2.47559 2.12451 3.04433V10.2828C2.12451 10.8516 2.58985 11.3169 3.15859 11.3169H10.3971C10.9658 11.3169 11.4312 10.8516 11.4312 10.2828V3.04433C11.4312 2.47559 10.9658 2.01025 10.3971 2.01025ZM6.11087 8.88168C6.06304 8.92961 6.00622 8.96764 5.94367 8.99358C5.88112 9.01953 5.81407 9.03288 5.74636 9.03288C5.67864 9.03288 5.61159 9.01953 5.54904 8.99358C5.4865 8.96764 5.42968 8.92961 5.38185 8.88168L3.52568 7.02551C3.47781 6.97765 3.43984 6.92082 3.41394 6.85828C3.38803 6.79573 3.3747 6.7287 3.3747 6.661C3.3747 6.59331 3.38803 6.52627 3.41394 6.46373C3.43984 6.40119 3.47781 6.34436 3.52568 6.29649C3.57355 6.24862 3.63038 6.21065 3.69292 6.18475C3.75546 6.15884 3.8225 6.14551 3.89019 6.14551C3.95789 6.14551 4.02492 6.15884 4.08747 6.18475C4.15001 6.21065 4.20684 6.24862 4.2547 6.29649L5.74377 7.78556L9.30099 4.22834C9.39766 4.13167 9.52878 4.07736 9.6655 4.07736C9.80222 4.07736 9.93334 4.13167 10.03 4.22834C10.1267 4.32502 10.181 4.45614 10.181 4.59285C10.181 4.72957 10.1267 4.86069 10.03 4.95737L6.11087 8.88168V8.88168Z" fill="#3B8BEA"/>
</svg>
