<svg width="14" height="13" viewBox="0 0 14 13" fill="none" xmlns="http://www.w3.org/2000/svg">
<path d="M10.1984 10.2828H3.99398C3.70961 10.2828 3.47695 10.0502 3.47695 9.76581V3.56137C3.47695 3.27699 3.70961 3.04433 3.99398 3.04433H10.1984C10.4828 3.04433 10.7155 3.27699 10.7155 3.56137V9.76581C10.7155 10.0502 10.4828 10.2828 10.1984 10.2828ZM10.7155 2.01025H3.47695C2.9082 2.01025 2.44287 2.47559 2.44287 3.04433V10.2828C2.44287 10.8516 2.9082 11.3169 3.47695 11.3169H10.7155C11.2842 11.3169 11.7495 10.8516 11.7495 10.2828V3.04433C11.7495 2.47559 11.2842 2.01025 10.7155 2.01025Z" fill="#9FACB2"/>
</svg>
