<svg width="20" height="20" viewBox="0 0 20 20" fill="none" xmlns="http://www.w3.org/2000/svg">
<path d="M15.6452 2.76526H4.18416C3.28365 2.76526 2.54688 3.50204 2.54688 4.40254V15.8635C2.54688 16.764 3.28365 17.5008 4.18416 17.5008H15.6452C16.5457 17.5008 17.2824 16.764 17.2824 15.8635V4.40254C17.2824 3.50204 16.5457 2.76526 15.6452 2.76526ZM8.85861 13.645C8.78287 13.7209 8.69291 13.7811 8.59388 13.8222C8.49484 13.8633 8.38868 13.8844 8.28146 13.8844C8.17425 13.8844 8.06808 13.8633 7.96905 13.8222C7.87002 13.7811 7.78006 13.7209 7.70432 13.645L4.7654 10.7061C4.6896 10.6303 4.62948 10.5403 4.58846 10.4413C4.54745 10.3423 4.52633 10.2361 4.52633 10.1289C4.52633 10.0218 4.54745 9.91562 4.58846 9.8166C4.62948 9.71757 4.6896 9.62759 4.7654 9.5518C4.84119 9.47601 4.93116 9.41589 5.03019 9.37487C5.12922 9.33385 5.23535 9.31274 5.34254 9.31274C5.44972 9.31274 5.55586 9.33385 5.65489 9.37487C5.75391 9.41589 5.84389 9.47601 5.91968 9.5518L8.27737 11.9095L13.9096 6.27723C14.0627 6.12417 14.2703 6.03817 14.4868 6.03817C14.7032 6.03817 14.9108 6.12417 15.0639 6.27723C15.217 6.4303 15.303 6.63791 15.303 6.85438C15.303 7.07085 15.217 7.27845 15.0639 7.43152L8.85861 13.645V13.645Z" fill="black"/>
</svg>
