<svg width="14" height="13" viewBox="0 0 14 13" fill="none" xmlns="http://www.w3.org/2000/svg">
<path d="M10.1984 10.0798H3.99398C3.70961 10.0798 3.47695 9.84718 3.47695 9.56281V3.35836C3.47695 3.07399 3.70961 2.84133 3.99398 2.84133H10.1984C10.4828 2.84133 10.7155 3.07399 10.7155 3.35836V9.56281C10.7155 9.84718 10.4828 10.0798 10.1984 10.0798ZM10.7155 1.80725H3.47695C2.9082 1.80725 2.44287 2.27258 2.44287 2.84133V10.0798C2.44287 10.6486 2.9082 11.1139 3.47695 11.1139H10.7155C11.2842 11.1139 11.7495 10.6486 11.7495 10.0798V2.84133C11.7495 2.27258 11.2842 1.80725 10.7155 1.80725Z" fill="#9FACB2"/>
</svg>
