<svg width="14" height="13" viewBox="0 0 14 13" fill="none" xmlns="http://www.w3.org/2000/svg">
<path d="M10.1984 9.88441H3.99398C3.70961 9.88441 3.47695 9.65174 3.47695 9.36737V3.16293C3.47695 2.87856 3.70961 2.64589 3.99398 2.64589H10.1984C10.4828 2.64589 10.7155 2.87856 10.7155 3.16293V9.36737C10.7155 9.65174 10.4828 9.88441 10.1984 9.88441ZM10.7155 1.61182H3.47695C2.9082 1.61182 2.44287 2.07715 2.44287 2.64589V9.88441C2.44287 10.4532 2.9082 10.9185 3.47695 10.9185H10.7155C11.2842 10.9185 11.7495 10.4532 11.7495 9.88441V2.64589C11.7495 2.07715 11.2842 1.61182 10.7155 1.61182Z" fill="#9FACB2"/>
</svg>
