<svg width="13" height="14" viewBox="0 0 13 14" fill="none" xmlns="http://www.w3.org/2000/svg">
<path d="M10.3971 2.40881H3.15859C2.58985 2.40881 2.12451 2.87415 2.12451 3.44289V10.6814C2.12451 11.2501 2.58985 11.7155 3.15859 11.7155H10.3971C10.9658 11.7155 11.4312 11.2501 11.4312 10.6814V3.44289C11.4312 2.87415 10.9658 2.40881 10.3971 2.40881ZM6.11087 9.28024C6.06304 9.32817 6.00622 9.3662 5.94367 9.39214C5.88112 9.41809 5.81407 9.43144 5.74636 9.43144C5.67864 9.43144 5.61159 9.41809 5.54904 9.39214C5.4865 9.3662 5.42968 9.32817 5.38185 9.28024L3.52568 7.42407C3.47781 7.37621 3.43984 7.31938 3.41394 7.25683C3.38803 7.19429 3.3747 7.12726 3.3747 7.05956C3.3747 6.99187 3.38803 6.92483 3.41394 6.86229C3.43984 6.79975 3.47781 6.74292 3.52568 6.69505C3.57355 6.64718 3.63038 6.60921 3.69292 6.58331C3.75546 6.5574 3.8225 6.54407 3.89019 6.54407C3.95789 6.54407 4.02492 6.5574 4.08747 6.58331C4.15001 6.60921 4.20684 6.64718 4.2547 6.69505L5.74377 8.18412L9.30099 4.6269C9.39766 4.53023 9.52878 4.47592 9.6655 4.47592C9.80222 4.47592 9.93334 4.53023 10.03 4.6269C10.1267 4.72358 10.181 4.8547 10.181 4.99141C10.181 5.12813 10.1267 5.25925 10.03 5.35593L6.11087 9.28024V9.28024Z" fill="#3B8BEA"/>
</svg>
