<svg width="13" height="13" viewBox="0 0 13 13" fill="none" xmlns="http://www.w3.org/2000/svg">
<path d="M10.3971 1.60419H3.15859C2.58985 1.60419 2.12451 2.06952 2.12451 2.63826V9.87678C2.12451 10.4455 2.58985 10.9109 3.15859 10.9109H10.3971C10.9658 10.9109 11.4312 10.4455 11.4312 9.87678V2.63826C11.4312 2.06952 10.9658 1.60419 10.3971 1.60419ZM6.11087 8.47561C6.06304 8.52354 6.00622 8.56157 5.94367 8.58751C5.88112 8.61346 5.81407 8.62681 5.74636 8.62681C5.67864 8.62681 5.61159 8.61346 5.54904 8.58751C5.4865 8.56157 5.42968 8.52354 5.38185 8.47561L3.52568 6.61945C3.47781 6.57158 3.43984 6.51475 3.41394 6.45221C3.38803 6.38967 3.3747 6.32263 3.3747 6.25494C3.3747 6.18724 3.38803 6.12021 3.41394 6.05766C3.43984 5.99512 3.47781 5.93829 3.52568 5.89042C3.57355 5.84256 3.63038 5.80459 3.69292 5.77868C3.75546 5.75277 3.8225 5.73944 3.89019 5.73944C3.95789 5.73944 4.02492 5.75277 4.08747 5.77868C4.15001 5.80459 4.20684 5.84256 4.2547 5.89042L5.74377 7.37949L9.30099 3.82228C9.39766 3.7256 9.52878 3.67129 9.6655 3.67129C9.80222 3.67129 9.93334 3.7256 10.03 3.82228C10.1267 3.91895 10.181 4.05007 10.181 4.18679C10.181 4.32351 10.1267 4.45462 10.03 4.5513L6.11087 8.47561V8.47561Z" fill="#3B8BEA"/>
</svg>
