<svg width="13" height="13" viewBox="0 0 13 13" fill="none" xmlns="http://www.w3.org/2000/svg">
<path d="M10.3971 1.61182H3.15859C2.58985 1.61182 2.12451 2.07715 2.12451 2.64589V9.88441C2.12451 10.4532 2.58985 10.9185 3.15859 10.9185H10.3971C10.9658 10.9185 11.4312 10.4532 11.4312 9.88441V2.64589C11.4312 2.07715 10.9658 1.61182 10.3971 1.61182ZM6.11087 8.48324C6.06304 8.53117 6.00622 8.5692 5.94367 8.59514C5.88112 8.62109 5.81407 8.63444 5.74636 8.63444C5.67864 8.63444 5.61159 8.62109 5.54904 8.59514C5.4865 8.5692 5.42968 8.53117 5.38185 8.48324L3.52568 6.62708C3.47781 6.57921 3.43984 6.52238 3.41394 6.45984C3.38803 6.39729 3.3747 6.33026 3.3747 6.26257C3.3747 6.19487 3.38803 6.12784 3.41394 6.06529C3.43984 6.00275 3.47781 5.94592 3.52568 5.89805C3.57355 5.85019 3.63038 5.81222 3.69292 5.78631C3.75546 5.7604 3.8225 5.74707 3.89019 5.74707C3.95789 5.74707 4.02492 5.7604 4.08747 5.78631C4.15001 5.81222 4.20684 5.85019 4.2547 5.89805L5.74377 7.38712L9.30099 3.82991C9.39766 3.73323 9.52878 3.67892 9.6655 3.67892C9.80222 3.67892 9.93334 3.73323 10.03 3.82991C10.1267 3.92658 10.181 4.0577 10.181 4.19442C10.181 4.33114 10.1267 4.46225 10.03 4.55893L6.11087 8.48324V8.48324Z" fill="#3B8BEA"/>
</svg>
