<svg width="14" height="14" viewBox="0 0 14 14" fill="none" xmlns="http://www.w3.org/2000/svg">
<path d="M10.1984 10.6814H3.99398C3.70961 10.6814 3.47695 10.4487 3.47695 10.1644V3.95992C3.47695 3.67555 3.70961 3.44289 3.99398 3.44289H10.1984C10.4828 3.44289 10.7155 3.67555 10.7155 3.95992V10.1644C10.7155 10.4487 10.4828 10.6814 10.1984 10.6814ZM10.7155 2.40881H3.47695C2.9082 2.40881 2.44287 2.87415 2.44287 3.44289V10.6814C2.44287 11.2501 2.9082 11.7155 3.47695 11.7155H10.7155C11.2842 11.7155 11.7495 11.2501 11.7495 10.6814V3.44289C11.7495 2.87415 11.2842 2.40881 10.7155 2.40881Z" fill="#9FACB2"/>
</svg>
