<svg width="13" height="14" viewBox="0 0 13 14" fill="none" xmlns="http://www.w3.org/2000/svg">
<path d="M10.3971 2.21326H3.15859C2.58985 2.21326 2.12451 2.67859 2.12451 3.24733V10.4859C2.12451 11.0546 2.58985 11.5199 3.15859 11.5199H10.3971C10.9658 11.5199 11.4312 11.0546 11.4312 10.4859V3.24733C11.4312 2.67859 10.9658 2.21326 10.3971 2.21326ZM6.11087 9.08468C6.06304 9.13261 6.00622 9.17064 5.94367 9.19658C5.88112 9.22253 5.81407 9.23588 5.74636 9.23588C5.67864 9.23588 5.61159 9.22253 5.54904 9.19658C5.4865 9.17064 5.42968 9.13261 5.38185 9.08468L3.52568 7.22852C3.47781 7.18065 3.43984 7.12382 3.41394 7.06128C3.38803 6.99874 3.3747 6.9317 3.3747 6.86401C3.3747 6.79631 3.38803 6.72928 3.41394 6.66673C3.43984 6.60419 3.47781 6.54736 3.52568 6.49949C3.57355 6.45163 3.63038 6.41366 3.69292 6.38775C3.75546 6.36184 3.8225 6.34851 3.89019 6.34851C3.95789 6.34851 4.02492 6.36184 4.08747 6.38775C4.15001 6.41366 4.20684 6.45163 4.2547 6.49949L5.74377 7.98856L9.30099 4.43135C9.39766 4.33467 9.52878 4.28036 9.6655 4.28036C9.80222 4.28036 9.93334 4.33467 10.03 4.43135C10.1267 4.52802 10.181 4.65914 10.181 4.79586C10.181 4.93258 10.1267 5.06369 10.03 5.16037L6.11087 9.08468V9.08468Z" fill="#3B8BEA"/>
</svg>
