<svg width="13" height="14" viewBox="0 0 13 14" fill="none" xmlns="http://www.w3.org/2000/svg">
<path d="M10.3971 2.20575H3.15859C2.58985 2.20575 2.12451 2.67108 2.12451 3.23982V10.4783C2.12451 11.0471 2.58985 11.5124 3.15859 11.5124H10.3971C10.9658 11.5124 11.4312 11.0471 11.4312 10.4783V3.23982C11.4312 2.67108 10.9658 2.20575 10.3971 2.20575ZM6.11087 9.07717C6.06304 9.1251 6.00622 9.16313 5.94367 9.18908C5.88112 9.21502 5.81407 9.22838 5.74636 9.22838C5.67864 9.22838 5.61159 9.21502 5.54904 9.18908C5.4865 9.16313 5.42968 9.1251 5.38185 9.07717L3.52568 7.22101C3.47781 7.17314 3.43984 7.11631 3.41394 7.05377C3.38803 6.99123 3.3747 6.92419 3.3747 6.8565C3.3747 6.7888 3.38803 6.72177 3.41394 6.65923C3.43984 6.59668 3.47781 6.53986 3.52568 6.49199C3.57355 6.44412 3.63038 6.40615 3.69292 6.38024C3.75546 6.35434 3.8225 6.341 3.89019 6.341C3.95789 6.341 4.02492 6.35434 4.08747 6.38024C4.15001 6.40615 4.20684 6.44412 4.2547 6.49199L5.74377 7.98105L9.30099 4.42384C9.39766 4.32716 9.52878 4.27285 9.6655 4.27285C9.80222 4.27285 9.93334 4.32716 10.03 4.42384C10.1267 4.52051 10.181 4.65163 10.181 4.78835C10.181 4.92507 10.1267 5.05619 10.03 5.15286L6.11087 9.07717V9.07717Z" fill="#3B8BEA"/>
</svg>
