<svg width="14" height="14" viewBox="0 0 14 14" fill="none" xmlns="http://www.w3.org/2000/svg">
<path d="M10.1984 10.4783H3.99398C3.70961 10.4783 3.47695 10.2457 3.47695 9.96131V3.75686C3.47695 3.47249 3.70961 3.23982 3.99398 3.23982H10.1984C10.4828 3.23982 10.7155 3.47249 10.7155 3.75686V9.96131C10.7155 10.2457 10.4828 10.4783 10.1984 10.4783ZM10.7155 2.20575H3.47695C2.9082 2.20575 2.44287 2.67108 2.44287 3.23982V10.4783C2.44287 11.0471 2.9082 11.5124 3.47695 11.5124H10.7155C11.2842 11.5124 11.7495 11.0471 11.7495 10.4783V3.23982C11.7495 2.67108 11.2842 2.20575 10.7155 2.20575Z" fill="#9FACB2"/>
</svg>
