<svg width="38" height="38" viewBox="0 0 38 38" fill="none" xmlns="http://www.w3.org/2000/svg">
<path d="M30.0833 4.75H7.91667C6.175 4.75 4.75 6.175 4.75 7.91667V30.0833C4.75 31.825 6.175 33.25 7.91667 33.25H30.0833C31.825 33.25 33.25 31.825 33.25 30.0833V7.91667C33.25 6.175 31.825 4.75 30.0833 4.75ZM16.9575 25.7925C16.811 25.9393 16.637 26.0557 16.4455 26.1352C16.2539 26.2146 16.0486 26.2555 15.8413 26.2555C15.6339 26.2555 15.4286 26.2146 15.237 26.1352C15.0455 26.0557 14.8715 25.9393 14.725 25.7925L9.04083 20.1083C8.89425 19.9617 8.77797 19.7877 8.69863 19.5962C8.6193 19.4047 8.57847 19.1994 8.57847 18.9921C8.57847 18.7848 8.6193 18.5795 8.69863 18.388C8.77797 18.1964 8.89425 18.0224 9.04083 17.8758C9.18742 17.7292 9.36145 17.613 9.55297 17.5336C9.7445 17.4543 9.94978 17.4135 10.1571 17.4135C10.3644 17.4135 10.5697 17.4543 10.7612 17.5336C10.9527 17.613 11.1267 17.7292 11.2733 17.8758L15.8333 22.4358L26.7267 11.5425C27.0227 11.2465 27.4242 11.0801 27.8429 11.0801C28.2616 11.0801 28.6631 11.2465 28.9592 11.5425C29.2552 11.8385 29.4215 12.2401 29.4215 12.6588C29.4215 13.0774 29.2552 13.479 28.9592 13.775L16.9575 25.7925V25.7925Z" fill="black"/>
</svg>
