<svg width="16" height="17" viewBox="0 0 16 17" fill="none" xmlns="http://www.w3.org/2000/svg">
<path d="M15.75 8.75C15.75 13.0302 12.2802 16.5 8 16.5C3.71978 16.5 0.25 13.0302 0.25 8.75C0.25 4.46978 3.71978 1 8 1C12.2802 1 15.75 4.46978 15.75 8.75ZM7.10356 12.8536L12.8536 7.10356C13.0488 6.90831 13.0488 6.59172 12.8536 6.39647L12.1465 5.68937C11.9512 5.49409 11.6346 5.49409 11.4393 5.68937L6.75 10.3787L4.56066 8.18934C4.36541 7.99409 4.04881 7.99409 3.85353 8.18934L3.14644 8.89644C2.95119 9.09169 2.95119 9.40828 3.14644 9.60353L6.39644 12.8535C6.59172 13.0488 6.90828 13.0488 7.10356 12.8536V12.8536Z" fill="#697386"/>
</svg>
