<svg width="27" height="26" viewBox="0 0 27 26" fill="none" xmlns="http://www.w3.org/2000/svg">
<rect x="4.77417" y="4.33337" width="6.5" height="6.5" rx="1" stroke="#4B465C" stroke-width="2" stroke-linecap="round" stroke-linejoin="round"/>
<rect x="4.77417" y="4.33337" width="6.5" height="6.5" rx="1" stroke="white" stroke-opacity="0.2" stroke-width="2" stroke-linecap="round" stroke-linejoin="round"/>
<rect x="15.6077" y="4.33337" width="6.5" height="6.5" rx="1" stroke="#4B465C" stroke-width="2" stroke-linecap="round" stroke-linejoin="round"/>
<rect x="15.6077" y="4.33337" width="6.5" height="6.5" rx="1" stroke="white" stroke-opacity="0.2" stroke-width="2" stroke-linecap="round" stroke-linejoin="round"/>
<rect x="4.77417" y="15.1666" width="6.5" height="6.5" rx="1" stroke="#4B465C" stroke-width="2" stroke-linecap="round" stroke-linejoin="round"/>
<rect x="4.77417" y="15.1666" width="6.5" height="6.5" rx="1" stroke="white" stroke-opacity="0.2" stroke-width="2" stroke-linecap="round" stroke-linejoin="round"/>
<path d="M15.6077 17.4166C15.0554 17.4166 14.6077 17.8643 14.6077 18.4166C14.6077 18.9689 15.0554 19.4166 15.6077 19.4166V17.4166ZM22.1077 19.4166C22.6599 19.4166 23.1077 18.9689 23.1077 18.4166C23.1077 17.8643 22.6599 17.4166 22.1077 17.4166V19.4166ZM19.8577 15.1666C19.8577 14.6143 19.41 14.1666 18.8577 14.1666C18.3054 14.1666 17.8577 14.6143 17.8577 15.1666H19.8577ZM17.8577 21.6666C17.8577 22.2189 18.3054 22.6666 18.8577 22.6666C19.41 22.6666 19.8577 22.2189 19.8577 21.6666H17.8577ZM15.6077 19.4166H22.1077V17.4166H15.6077V19.4166ZM17.8577 15.1666V21.6666H19.8577V15.1666H17.8577Z" fill="#4B465C"/>
<path d="M15.6077 17.4166C15.0554 17.4166 14.6077 17.8643 14.6077 18.4166C14.6077 18.9689 15.0554 19.4166 15.6077 19.4166V17.4166ZM22.1077 19.4166C22.6599 19.4166 23.1077 18.9689 23.1077 18.4166C23.1077 17.8643 22.6599 17.4166 22.1077 17.4166V19.4166ZM19.8577 15.1666C19.8577 14.6143 19.41 14.1666 18.8577 14.1666C18.3054 14.1666 17.8577 14.6143 17.8577 15.1666H19.8577ZM17.8577 21.6666C17.8577 22.2189 18.3054 22.6666 18.8577 22.6666C19.41 22.6666 19.8577 22.2189 19.8577 21.6666H17.8577ZM15.6077 19.4166H22.1077V17.4166H15.6077V19.4166ZM17.8577 15.1666V21.6666H19.8577V15.1666H17.8577Z" fill="white" fill-opacity="0.2"/>
</svg>
