<svg width="14" height="14" viewBox="0 0 14 14" fill="none" xmlns="http://www.w3.org/2000/svg">
<rect x="2.24707" y="2.54718" width="3.36074" height="3.36074" rx="0.517037" stroke="#4B465C" stroke-width="1.03407" stroke-linecap="round" stroke-linejoin="round"/>
<rect x="2.24707" y="2.54718" width="3.36074" height="3.36074" rx="0.517037" stroke="white" stroke-opacity="0.2" stroke-width="1.03407" stroke-linecap="round" stroke-linejoin="round"/>
<rect x="7.84814" y="2.54718" width="3.36074" height="3.36074" rx="0.517037" stroke="#4B465C" stroke-width="1.03407" stroke-linecap="round" stroke-linejoin="round"/>
<rect x="7.84814" y="2.54718" width="3.36074" height="3.36074" rx="0.517037" stroke="white" stroke-opacity="0.2" stroke-width="1.03407" stroke-linecap="round" stroke-linejoin="round"/>
<rect x="2.24707" y="8.14841" width="3.36074" height="3.36074" rx="0.517037" stroke="#4B465C" stroke-width="1.03407" stroke-linecap="round" stroke-linejoin="round"/>
<rect x="2.24707" y="8.14841" width="3.36074" height="3.36074" rx="0.517037" stroke="white" stroke-opacity="0.2" stroke-width="1.03407" stroke-linecap="round" stroke-linejoin="round"/>
<path d="M7.84814 9.31175C7.56259 9.31175 7.33111 9.54323 7.33111 9.82878C7.33111 10.1143 7.56259 10.3458 7.84814 10.3458V9.31175ZM11.2089 10.3458C11.4944 10.3458 11.7259 10.1143 11.7259 9.82878C11.7259 9.54323 11.4944 9.31175 11.2089 9.31175V10.3458ZM10.0456 8.14841C10.0456 7.86286 9.81415 7.63137 9.5286 7.63137C9.24305 7.63137 9.01156 7.86286 9.01156 8.14841H10.0456ZM9.01156 11.5091C9.01156 11.7947 9.24305 12.0262 9.5286 12.0262C9.81415 12.0262 10.0456 11.7947 10.0456 11.5091H9.01156ZM7.84814 10.3458H11.2089V9.31175H7.84814V10.3458ZM9.01156 8.14841V11.5091H10.0456V8.14841H9.01156Z" fill="#4B465C"/>
<path d="M7.84814 9.31175C7.56259 9.31175 7.33111 9.54323 7.33111 9.82878C7.33111 10.1143 7.56259 10.3458 7.84814 10.3458V9.31175ZM11.2089 10.3458C11.4944 10.3458 11.7259 10.1143 11.7259 9.82878C11.7259 9.54323 11.4944 9.31175 11.2089 9.31175V10.3458ZM10.0456 8.14841C10.0456 7.86286 9.81415 7.63137 9.5286 7.63137C9.24305 7.63137 9.01156 7.86286 9.01156 8.14841H10.0456ZM9.01156 11.5091C9.01156 11.7947 9.24305 12.0262 9.5286 12.0262C9.81415 12.0262 10.0456 11.7947 10.0456 11.5091H9.01156ZM7.84814 10.3458H11.2089V9.31175H7.84814V10.3458ZM9.01156 8.14841V11.5091H10.0456V8.14841H9.01156Z" fill="white" fill-opacity="0.2"/>
</svg>
