<svg width="27" height="26" viewBox="0 0 27 26" fill="none" xmlns="http://www.w3.org/2000/svg">
<rect x="4.77411" y="4.33337" width="6.5" height="6.5" rx="1" stroke="#4B465C" stroke-width="2" stroke-linecap="round" stroke-linejoin="round"/>
<rect x="4.77411" y="4.33337" width="6.5" height="6.5" rx="1" stroke="white" stroke-opacity="0.2" stroke-width="2" stroke-linecap="round" stroke-linejoin="round"/>
<rect x="15.6075" y="4.33337" width="6.5" height="6.5" rx="1" stroke="#4B465C" stroke-width="2" stroke-linecap="round" stroke-linejoin="round"/>
<rect x="15.6075" y="4.33337" width="6.5" height="6.5" rx="1" stroke="white" stroke-opacity="0.2" stroke-width="2" stroke-linecap="round" stroke-linejoin="round"/>
<rect x="4.77411" y="15.1666" width="6.5" height="6.5" rx="1" stroke="#4B465C" stroke-width="2" stroke-linecap="round" stroke-linejoin="round"/>
<rect x="4.77411" y="15.1666" width="6.5" height="6.5" rx="1" stroke="white" stroke-opacity="0.2" stroke-width="2" stroke-linecap="round" stroke-linejoin="round"/>
<path d="M15.6075 17.4166C15.0552 17.4166 14.6075 17.8643 14.6075 18.4166C14.6075 18.9689 15.0552 19.4166 15.6075 19.4166V17.4166ZM22.1075 19.4166C22.6598 19.4166 23.1075 18.9689 23.1075 18.4166C23.1075 17.8643 22.6598 17.4166 22.1075 17.4166V19.4166ZM19.8575 15.1666C19.8575 14.6143 19.4098 14.1666 18.8575 14.1666C18.3052 14.1666 17.8575 14.6143 17.8575 15.1666H19.8575ZM17.8575 21.6666C17.8575 22.2189 18.3052 22.6666 18.8575 22.6666C19.4098 22.6666 19.8575 22.2189 19.8575 21.6666H17.8575ZM15.6075 19.4166H22.1075V17.4166H15.6075V19.4166ZM17.8575 15.1666V21.6666H19.8575V15.1666H17.8575Z" fill="#4B465C"/>
<path d="M15.6075 17.4166C15.0552 17.4166 14.6075 17.8643 14.6075 18.4166C14.6075 18.9689 15.0552 19.4166 15.6075 19.4166V17.4166ZM22.1075 19.4166C22.6598 19.4166 23.1075 18.9689 23.1075 18.4166C23.1075 17.8643 22.6598 17.4166 22.1075 17.4166V19.4166ZM19.8575 15.1666C19.8575 14.6143 19.4098 14.1666 18.8575 14.1666C18.3052 14.1666 17.8575 14.6143 17.8575 15.1666H19.8575ZM17.8575 21.6666C17.8575 22.2189 18.3052 22.6666 18.8575 22.6666C19.4098 22.6666 19.8575 22.2189 19.8575 21.6666H17.8575ZM15.6075 19.4166H22.1075V17.4166H15.6075V19.4166ZM17.8575 15.1666V21.6666H19.8575V15.1666H17.8575Z" fill="white" fill-opacity="0.2"/>
</svg>
