<svg width="27" height="26" viewBox="0 0 27 26" fill="none" xmlns="http://www.w3.org/2000/svg">
<rect x="4.77441" y="4.33337" width="6.5" height="6.5" rx="1" stroke="#4B465C" stroke-width="2" stroke-linecap="round" stroke-linejoin="round"/>
<rect x="4.77441" y="4.33337" width="6.5" height="6.5" rx="1" stroke="white" stroke-opacity="0.2" stroke-width="2" stroke-linecap="round" stroke-linejoin="round"/>
<rect x="15.6074" y="4.33337" width="6.5" height="6.5" rx="1" stroke="#4B465C" stroke-width="2" stroke-linecap="round" stroke-linejoin="round"/>
<rect x="15.6074" y="4.33337" width="6.5" height="6.5" rx="1" stroke="white" stroke-opacity="0.2" stroke-width="2" stroke-linecap="round" stroke-linejoin="round"/>
<rect x="4.77441" y="15.1666" width="6.5" height="6.5" rx="1" stroke="#4B465C" stroke-width="2" stroke-linecap="round" stroke-linejoin="round"/>
<rect x="4.77441" y="15.1666" width="6.5" height="6.5" rx="1" stroke="white" stroke-opacity="0.2" stroke-width="2" stroke-linecap="round" stroke-linejoin="round"/>
<path d="M15.6074 17.4166C15.0551 17.4166 14.6074 17.8643 14.6074 18.4166C14.6074 18.9689 15.0551 19.4166 15.6074 19.4166V17.4166ZM22.1074 19.4166C22.6597 19.4166 23.1074 18.9689 23.1074 18.4166C23.1074 17.8643 22.6597 17.4166 22.1074 17.4166V19.4166ZM19.8574 15.1666C19.8574 14.6143 19.4097 14.1666 18.8574 14.1666C18.3051 14.1666 17.8574 14.6143 17.8574 15.1666H19.8574ZM17.8574 21.6666C17.8574 22.2189 18.3051 22.6666 18.8574 22.6666C19.4097 22.6666 19.8574 22.2189 19.8574 21.6666H17.8574ZM15.6074 19.4166H22.1074V17.4166H15.6074V19.4166ZM17.8574 15.1666V21.6666H19.8574V15.1666H17.8574Z" fill="#4B465C"/>
<path d="M15.6074 17.4166C15.0551 17.4166 14.6074 17.8643 14.6074 18.4166C14.6074 18.9689 15.0551 19.4166 15.6074 19.4166V17.4166ZM22.1074 19.4166C22.6597 19.4166 23.1074 18.9689 23.1074 18.4166C23.1074 17.8643 22.6597 17.4166 22.1074 17.4166V19.4166ZM19.8574 15.1666C19.8574 14.6143 19.4097 14.1666 18.8574 14.1666C18.3051 14.1666 17.8574 14.6143 17.8574 15.1666H19.8574ZM17.8574 21.6666C17.8574 22.2189 18.3051 22.6666 18.8574 22.6666C19.4097 22.6666 19.8574 22.2189 19.8574 21.6666H17.8574ZM15.6074 19.4166H22.1074V17.4166H15.6074V19.4166ZM17.8574 15.1666V21.6666H19.8574V15.1666H17.8574Z" fill="white" fill-opacity="0.2"/>
</svg>
