<svg width="10" height="10" viewBox="0 0 10 10" fill="none" xmlns="http://www.w3.org/2000/svg">
<g clip-path="url(#clip0_2402_3992)">
<path d="M7.00146 3.49878H6.65677V2.80939C6.65677 1.85805 5.88466 1.08594 4.93331 1.08594C3.98196 1.08594 3.20986 1.85805 3.20986 2.80939V3.49878H2.86516C2.486 3.49878 2.17578 3.809 2.17578 4.18816V7.63508C2.17578 8.01424 2.486 8.32446 2.86516 8.32446H7.00146C7.38062 8.32446 7.69084 8.01424 7.69084 7.63508V4.18816C7.69084 3.809 7.38062 3.49878 7.00146 3.49878ZM4.93331 6.601C4.55415 6.601 4.24393 6.29078 4.24393 5.91162C4.24393 5.53246 4.55415 5.22223 4.93331 5.22223C5.31247 5.22223 5.6227 5.53246 5.6227 5.91162C5.6227 6.29078 5.31247 6.601 4.93331 6.601ZM6.00186 3.49878H3.86477V2.80939C3.86477 2.21997 4.34389 1.74085 4.93331 1.74085C5.52274 1.74085 6.00186 2.21997 6.00186 2.80939V3.49878Z" fill="#40464C"/>
</g>
<defs>
<clipPath id="clip0_2402_3992">
<rect width="8.27259" height="8.27259" fill="white" transform="translate(0.796875 0.74115)"/>
</clipPath>
</defs>
</svg>
