<svg width="16" height="17" viewBox="0 0 16 17" fill="none" xmlns="http://www.w3.org/2000/svg">
<g clip-path="url(#clip0_2402_3254)">
<path d="M11.9998 5.83335H11.3332V4.50002C11.3332 2.66002 9.83984 1.16669 7.99984 1.16669C6.15984 1.16669 4.6665 2.66002 4.6665 4.50002V5.83335H3.99984C3.2665 5.83335 2.6665 6.43335 2.6665 7.16669V13.8334C2.6665 14.5667 3.2665 15.1667 3.99984 15.1667H11.9998C12.7332 15.1667 13.3332 14.5667 13.3332 13.8334V7.16669C13.3332 6.43335 12.7332 5.83335 11.9998 5.83335ZM7.99984 11.8334C7.2665 11.8334 6.6665 11.2334 6.6665 10.5C6.6665 9.76669 7.2665 9.16669 7.99984 9.16669C8.73317 9.16669 9.33317 9.76669 9.33317 10.5C9.33317 11.2334 8.73317 11.8334 7.99984 11.8334ZM10.0665 5.83335H5.93317V4.50002C5.93317 3.36002 6.85984 2.43335 7.99984 2.43335C9.13984 2.43335 10.0665 3.36002 10.0665 4.50002V5.83335Z" fill="#40464C"/>
</g>
<defs>
<clipPath id="clip0_2402_3254">
<rect width="16" height="16" fill="white" transform="translate(0 0.5)"/>
</clipPath>
</defs>
</svg>
