<svg width="9" height="9" viewBox="0 0 9 9" fill="none" xmlns="http://www.w3.org/2000/svg">
<path d="M4.07704 2.10756C4.12077 2.10756 4.16177 2.11434 4.20004 2.12789C4.23831 2.14145 4.27384 2.16474 4.30664 2.19776L6.47143 4.36254C6.53702 4.42814 6.56982 4.50599 6.56982 4.59608C6.56982 4.68617 6.53702 4.76412 6.47143 4.82994C6.40583 4.89554 6.32929 4.92834 6.24183 4.92834C6.15436 4.92834 6.07783 4.89554 6.01223 4.82994L4.40504 3.22275L4.40504 6.89633C4.40504 6.98926 4.37355 7.06579 4.31057 7.12593C4.2476 7.18606 4.16975 7.21613 4.07704 7.21613C3.98411 7.21613 3.90615 7.18464 3.84318 7.12166C3.7802 7.05869 3.74882 6.98084 3.74904 6.88813L3.74904 3.22275L2.14185 4.82994C2.07625 4.89554 1.99972 4.92834 1.91225 4.92834C1.82479 4.92834 1.74826 4.89554 1.68266 4.82994C1.61706 4.76434 1.58426 4.68639 1.58426 4.59608C1.58426 4.50577 1.61706 4.42792 1.68266 4.36254L3.84744 2.19776C3.88024 2.16496 3.91578 2.14167 3.95404 2.12789C3.99231 2.11412 4.03331 2.10734 4.07704 2.10756Z" fill="#1EB564"/>
</svg>
