<svg width="9" height="9" viewBox="0 0 9 9" fill="none" xmlns="http://www.w3.org/2000/svg">
<path d="M4.60976 2.44179C4.65349 2.44179 4.69449 2.44857 4.73275 2.46212C4.77102 2.47568 4.80655 2.49897 4.83935 2.53199L7.00414 4.69677C7.06974 4.76237 7.10254 4.84022 7.10254 4.93031C7.10254 5.0204 7.06974 5.09835 7.00414 5.16417C6.93854 5.22977 6.86201 5.26257 6.77454 5.26257C6.68708 5.26257 6.61054 5.22977 6.54494 5.16417L4.93775 3.55698L4.93775 7.23056C4.93775 7.32349 4.90627 7.40002 4.84329 7.46015C4.78031 7.52029 4.70247 7.55035 4.60976 7.55035C4.51682 7.55035 4.43887 7.51887 4.37589 7.45589C4.31292 7.39291 4.28154 7.31507 4.28176 7.22236L4.28176 3.55698L2.67457 5.16417C2.60897 5.22977 2.53244 5.26257 2.44497 5.26257C2.3575 5.26257 2.28097 5.22977 2.21537 5.16417C2.14977 5.09857 2.11697 5.02062 2.11697 4.93031C2.11697 4.84 2.14977 4.76215 2.21537 4.69677L4.38016 2.53199C4.41296 2.49919 4.44849 2.4759 4.48676 2.46212C4.52502 2.44835 4.56602 2.44157 4.60976 2.44179Z" fill="#D02626"/>
</svg>
