<svg width="17" height="16" viewBox="0 0 17 16" fill="none" xmlns="http://www.w3.org/2000/svg">
<path d="M8.34007 2.95004C8.42896 2.95004 8.51229 2.96382 8.59007 2.99137C8.66785 3.01893 8.74007 3.06626 8.80674 3.13337L13.2067 7.53337C13.3401 7.66671 13.4067 7.82493 13.4067 8.00804C13.4067 8.19115 13.3401 8.3496 13.2067 8.48337C13.0734 8.61671 12.9178 8.68337 12.7401 8.68337C12.5623 8.68337 12.4067 8.61671 12.2734 8.48337L9.00674 5.21671L9.00674 12.6834C9.00674 12.8723 8.94274 13.0278 8.81474 13.15C8.68674 13.2723 8.52852 13.3334 8.34007 13.3334C8.15118 13.3334 7.99274 13.2694 7.86474 13.1414C7.73674 13.0134 7.67296 12.8552 7.6734 12.6667L7.67341 5.21671L4.40674 8.48337C4.27341 8.61671 4.11785 8.68337 3.94007 8.68337C3.76229 8.68337 3.60674 8.61671 3.47341 8.48337C3.34007 8.35004 3.2734 8.1916 3.2734 8.00804C3.2734 7.82448 3.34007 7.66626 3.47341 7.53337L7.87341 3.13337C7.94007 3.06671 8.01229 3.01937 8.09007 2.99137C8.16785 2.96337 8.25118 2.9496 8.34007 2.95004Z" fill="#1EB564"/>
</svg>
