<svg width="16" height="17" viewBox="0 0 16 17" fill="none" xmlns="http://www.w3.org/2000/svg">
<path d="M8.00023 3.1365C8.08912 3.1365 8.17245 3.15028 8.25023 3.17784C8.32801 3.20539 8.40023 3.25273 8.4669 3.31984L12.8669 7.71984C13.0002 7.85317 13.0669 8.01139 13.0669 8.1945C13.0669 8.37761 13.0002 8.53606 12.8669 8.66984C12.7336 8.80317 12.578 8.86984 12.4002 8.86984C12.2225 8.86984 12.0669 8.80317 11.9336 8.66984L8.6669 5.40317L8.66689 12.8698C8.66689 13.0587 8.60289 13.2143 8.47489 13.3365C8.34689 13.4587 8.18867 13.5198 8.00023 13.5198C7.81134 13.5198 7.65289 13.4558 7.52489 13.3278C7.39689 13.1998 7.33312 13.0416 7.33356 12.8532L7.33356 5.40317L4.06689 8.66984C3.93356 8.80317 3.77801 8.86984 3.60023 8.86984C3.42245 8.86984 3.26689 8.80317 3.13356 8.66984C3.00023 8.5365 2.93356 8.37806 2.93356 8.1945C2.93356 8.01095 3.00023 7.85272 3.13356 7.71984L7.53356 3.31984C7.60023 3.25317 7.67245 3.20584 7.75023 3.17784C7.82801 3.14984 7.91134 3.13606 8.00023 3.1365Z" fill="#D02626"/>
</svg>
