<svg width="10" height="11" viewBox="0 0 10 11" fill="none" xmlns="http://www.w3.org/2000/svg">
<g clip-path="url(#clip0_2402_3882)">
<path fill-rule="evenodd" clip-rule="evenodd" d="M4.49261 1.62213C3.96701 1.62218 3.44905 1.74791 2.98193 1.98885C2.51481 2.22979 2.11208 2.57894 1.80734 3.00718C1.5026 3.43542 1.30469 3.93032 1.23012 4.4506C1.15555 4.97088 1.20648 5.50145 1.37867 5.99804C1.55085 6.49464 1.8393 6.94285 2.21993 7.3053C2.60057 7.66774 3.06237 7.93391 3.56679 8.08158C4.07122 8.22925 4.60365 8.25416 5.11965 8.15422C5.63566 8.05427 6.12029 7.83238 6.5331 7.50705L7.94926 8.92321C8.0224 8.99385 8.12035 9.03294 8.22202 9.03205C8.3237 9.03117 8.42096 8.99039 8.49286 8.91849C8.56475 8.84659 8.60553 8.74933 8.60642 8.64766C8.6073 8.54598 8.56822 8.44803 8.49758 8.37489L7.08141 6.95873C7.46454 6.4727 7.70309 5.88862 7.76976 5.27334C7.83643 4.65806 7.72854 4.03644 7.45842 3.47962C7.18831 2.9228 6.76688 2.45328 6.24238 2.12478C5.71788 1.79628 5.11149 1.62209 4.49261 1.62213ZM1.97205 4.91824C1.97205 4.24975 2.23761 3.60864 2.71031 3.13594C3.183 2.66324 3.82412 2.39769 4.49261 2.39769C5.1611 2.39769 5.80222 2.66324 6.27491 3.13594C6.74761 3.60864 7.01317 4.24975 7.01317 4.91824C7.01317 5.58674 6.74761 6.22785 6.27491 6.70055C5.80222 7.17324 5.1611 7.4388 4.49261 7.4388C3.82412 7.4388 3.183 7.17324 2.71031 6.70055C2.23761 6.22785 1.97205 5.58674 1.97205 4.91824Z" fill="#8B909A"/>
</g>
<defs>
<clipPath id="clip0_2402_3882">
<rect width="9.30667" height="9.30667" fill="white" transform="translate(0.420898 0.84668)"/>
</clipPath>
</defs>
</svg>
