<svg width="14" height="14" viewBox="0 0 14 14" fill="none" xmlns="http://www.w3.org/2000/svg">
<path fill-rule="evenodd" clip-rule="evenodd" d="M6.72778 1.98702C6.80172 1.98702 6.8751 1.98702 6.94791 1.98702C5.46311 3.3667 5.17514 5.60982 6.26329 7.31981C7.35144 9.0298 9.50539 9.71901 11.3841 8.95832C10.4136 11.2936 7.86305 12.5483 5.42081 11.8921C2.97857 11.2358 1.4005 8.87165 1.73117 6.36449C2.06184 3.85733 4.19891 1.98315 6.72778 1.98254V1.98702Z" stroke="#4B465C" stroke-width="1.03407" stroke-linecap="round" stroke-linejoin="round"/>
<path fill-rule="evenodd" clip-rule="evenodd" d="M6.72778 1.98702C6.80172 1.98702 6.8751 1.98702 6.94791 1.98702C5.46311 3.3667 5.17514 5.60982 6.26329 7.31981C7.35144 9.0298 9.50539 9.71901 11.3841 8.95832C10.4136 11.2936 7.86305 12.5483 5.42081 11.8921C2.97857 11.2358 1.4005 8.87165 1.73117 6.36449C2.06184 3.85733 4.19891 1.98315 6.72778 1.98254V1.98702Z" stroke="white" stroke-opacity="0.2" stroke-width="1.03407" stroke-linecap="round" stroke-linejoin="round"/>
<path d="M9.52845 2.54718C9.52845 3.16588 10.03 3.66743 10.6487 3.66743C10.03 3.66743 9.52845 4.16898 9.52845 4.78767C9.52845 4.16898 9.0269 3.66743 8.4082 3.66743C9.0269 3.66743 9.52845 3.16588 9.52845 2.54718" stroke="#4B465C" stroke-width="1.03407" stroke-linecap="round" stroke-linejoin="round"/>
<path d="M9.52845 2.54718C9.52845 3.16588 10.03 3.66743 10.6487 3.66743C10.03 3.66743 9.52845 4.16898 9.52845 4.78767C9.52845 4.16898 9.0269 3.66743 8.4082 3.66743C9.0269 3.66743 9.52845 3.16588 9.52845 2.54718" stroke="white" stroke-opacity="0.2" stroke-width="1.03407" stroke-linecap="round" stroke-linejoin="round"/>
<path d="M10.6489 5.95098C10.3634 5.95098 10.1319 6.18246 10.1319 6.46802C10.1319 6.75357 10.3634 6.98505 10.6489 6.98505V5.95098ZM11.7692 6.98505C12.0547 6.98505 12.2862 6.75357 12.2862 6.46802C12.2862 6.18246 12.0547 5.95098 11.7692 5.95098V6.98505ZM11.726 5.9079C11.726 5.62235 11.4945 5.39086 11.209 5.39086C10.9234 5.39086 10.6919 5.62235 10.6919 5.9079H11.726ZM10.6919 7.02815C10.6919 7.3137 10.9234 7.54518 11.209 7.54518C11.4945 7.54518 11.726 7.3137 11.726 7.02815H10.6919ZM10.6489 6.98505H11.7692V5.95098H10.6489V6.98505ZM10.6919 5.9079V7.02815H11.726V5.9079H10.6919Z" fill="#4B465C"/>
<path d="M10.6489 5.95098C10.3634 5.95098 10.1319 6.18246 10.1319 6.46802C10.1319 6.75357 10.3634 6.98505 10.6489 6.98505V5.95098ZM11.7692 6.98505C12.0547 6.98505 12.2862 6.75357 12.2862 6.46802C12.2862 6.18246 12.0547 5.95098 11.7692 5.95098V6.98505ZM11.726 5.9079C11.726 5.62235 11.4945 5.39086 11.209 5.39086C10.9234 5.39086 10.6919 5.62235 10.6919 5.9079H11.726ZM10.6919 7.02815C10.6919 7.3137 10.9234 7.54518 11.209 7.54518C11.4945 7.54518 11.726 7.3137 11.726 7.02815H10.6919ZM10.6489 6.98505H11.7692V5.95098H10.6489V6.98505ZM10.6919 5.9079V7.02815H11.726V5.9079H10.6919Z" fill="white" fill-opacity="0.2"/>
</svg>
