<svg width="27" height="26" viewBox="0 0 27 26" fill="none" xmlns="http://www.w3.org/2000/svg">
<path fill-rule="evenodd" clip-rule="evenodd" d="M13.4408 3.24988C13.5838 3.24988 13.7257 3.24988 13.8665 3.24988C10.9948 5.91831 10.4378 10.2567 12.5424 13.564C14.647 16.8713 18.8129 18.2043 22.4465 16.733C20.5694 21.2496 15.6365 23.6765 10.913 22.4072C6.18943 21.1379 3.13729 16.5654 3.77684 11.7163C4.41639 6.86722 8.54969 3.24239 13.4408 3.24121V3.24988Z" stroke="#4B465C" stroke-width="2" stroke-linecap="round" stroke-linejoin="round"/>
<path fill-rule="evenodd" clip-rule="evenodd" d="M13.4408 3.24988C13.5838 3.24988 13.7257 3.24988 13.8665 3.24988C10.9948 5.91831 10.4378 10.2567 12.5424 13.564C14.647 16.8713 18.8129 18.2043 22.4465 16.733C20.5694 21.2496 15.6365 23.6765 10.913 22.4072C6.18943 21.1379 3.13729 16.5654 3.77684 11.7163C4.41639 6.86722 8.54969 3.24239 13.4408 3.24121V3.24988Z" stroke="white" stroke-opacity="0.2" stroke-width="2" stroke-linecap="round" stroke-linejoin="round"/>
<path d="M18.8575 4.33337C18.8575 5.52999 19.8275 6.50004 21.0241 6.50004C19.8275 6.50004 18.8575 7.47009 18.8575 8.66671C18.8575 7.47009 17.8874 6.50004 16.6908 6.50004C17.8874 6.50004 18.8575 5.52999 18.8575 4.33337" stroke="#4B465C" stroke-width="2" stroke-linecap="round" stroke-linejoin="round"/>
<path d="M18.8575 4.33337C18.8575 5.52999 19.8275 6.50004 21.0241 6.50004C19.8275 6.50004 18.8575 7.47009 18.8575 8.66671C18.8575 7.47009 17.8874 6.50004 16.6908 6.50004C17.8874 6.50004 18.8575 5.52999 18.8575 4.33337" stroke="white" stroke-opacity="0.2" stroke-width="2" stroke-linecap="round" stroke-linejoin="round"/>
<path d="M21.0241 10.9167C20.4718 10.9167 20.0241 11.3644 20.0241 11.9167C20.0241 12.469 20.4718 12.9167 21.0241 12.9167V10.9167ZM23.1908 12.9167C23.7431 12.9167 24.1908 12.469 24.1908 11.9167C24.1908 11.3644 23.7431 10.9167 23.1908 10.9167V12.9167ZM23.1074 10.8334C23.1074 10.2811 22.6597 9.83337 22.1074 9.83337C21.5552 9.83337 21.1074 10.2811 21.1074 10.8334H23.1074ZM21.1074 13C21.1074 13.5523 21.5552 14 22.1074 14C22.6597 14 23.1074 13.5523 23.1074 13H21.1074ZM21.0241 12.9167H23.1908V10.9167H21.0241V12.9167ZM21.1074 10.8334V13H23.1074V10.8334H21.1074Z" fill="#4B465C"/>
<path d="M21.0241 10.9167C20.4718 10.9167 20.0241 11.3644 20.0241 11.9167C20.0241 12.469 20.4718 12.9167 21.0241 12.9167V10.9167ZM23.1908 12.9167C23.7431 12.9167 24.1908 12.469 24.1908 11.9167C24.1908 11.3644 23.7431 10.9167 23.1908 10.9167V12.9167ZM23.1074 10.8334C23.1074 10.2811 22.6597 9.83337 22.1074 9.83337C21.5552 9.83337 21.1074 10.2811 21.1074 10.8334H23.1074ZM21.1074 13C21.1074 13.5523 21.5552 14 22.1074 14C22.6597 14 23.1074 13.5523 23.1074 13H21.1074ZM21.0241 12.9167H23.1908V10.9167H21.0241V12.9167ZM21.1074 10.8334V13H23.1074V10.8334H21.1074Z" fill="white" fill-opacity="0.2"/>
</svg>
