<svg width="94" height="95" viewBox="0 0 94 95" fill="none" xmlns="http://www.w3.org/2000/svg">
<circle cx="46.9996" cy="47.6005" r="46.631" fill="#23A26D" fill-opacity="0.2"/>
<path d="M46.1676 25.395C33.9326 25.395 23.9624 35.3652 23.9624 47.6003C23.9624 59.8353 33.9326 69.8055 46.1676 69.8055C58.4027 69.8055 68.3729 59.8353 68.3729 47.6003C68.3729 35.3652 58.4027 25.395 46.1676 25.395ZM56.7817 42.493L44.1914 55.0834C43.8805 55.3943 43.4586 55.5719 43.0145 55.5719C42.5704 55.5719 42.1485 55.3943 41.8376 55.0834L35.5535 48.7993C34.9096 48.1554 34.9096 47.0895 35.5535 46.4456C36.1975 45.8016 37.2633 45.8016 37.9073 46.4456L43.0145 51.5528L54.428 40.1393C55.0719 39.4953 56.1378 39.4953 56.7817 40.1393C57.4257 40.7832 57.4257 41.8269 56.7817 42.493Z" fill="#5CD17D"/>
</svg>
