<svg width="9" height="10" viewBox="0 0 9 10" fill="none" xmlns="http://www.w3.org/2000/svg">
<g clip-path="url(#clip0_2402_4014)">
<path d="M7.76538 1.43304H5.19945C5.00742 1.43309 4.82327 1.5094 4.6875 1.64521L1.46299 4.86972C1.32724 5.00552 1.25098 5.18967 1.25098 5.38168C1.25098 5.57369 1.32724 5.75784 1.46299 5.89363L4.02855 8.45919C4.16434 8.59494 4.34849 8.6712 4.5405 8.6712C4.73251 8.6712 4.91666 8.59494 5.05246 8.45919L8.27697 5.23468C8.4131 5.09927 8.4895 4.91498 8.4895 4.72309V2.15717C8.4895 1.96512 8.41321 1.78093 8.27741 1.64513C8.14161 1.50934 7.95743 1.43304 7.76538 1.43304V1.43304ZM6.68173 3.96493C6.5853 3.96711 6.4894 3.95001 6.39968 3.91462C6.30995 3.87923 6.22819 3.82627 6.15921 3.75885C6.09023 3.69143 6.03542 3.6109 5.99799 3.52201C5.96056 3.43311 5.94126 3.33763 5.94124 3.24118C5.94121 3.14472 5.96046 3.04923 5.99785 2.96032C6.03523 2.87141 6.09001 2.79086 6.15895 2.7234C6.2279 2.65595 6.30963 2.60295 6.39934 2.56751C6.48905 2.53208 6.58494 2.51492 6.68137 2.51705C6.87057 2.52124 7.05061 2.59932 7.18296 2.73459C7.3153 2.86986 7.38943 3.05157 7.38948 3.24082C7.38953 3.43006 7.31549 3.61181 7.18321 3.74714C7.05093 3.88248 6.87093 3.96066 6.68173 3.96493Z" fill="#40464C"/>
</g>
<defs>
<clipPath id="clip0_2402_4014">
<rect width="8.27259" height="8.27259" fill="white" transform="translate(0.559082 0.741211)"/>
</clipPath>
</defs>
</svg>
