<svg width="17" height="16" viewBox="0 0 17 16" fill="none" xmlns="http://www.w3.org/2000/svg">
<path d="M14.4379 1.33801H9.47512C9.10371 1.33809 8.74754 1.4857 8.48495 1.74837L2.24843 7.98488C1.98588 8.24752 1.83838 8.60368 1.83838 8.97505C1.83838 9.34642 1.98588 9.70258 2.24843 9.96522L7.21047 14.9273C7.47311 15.1898 7.82928 15.3373 8.20064 15.3373C8.57201 15.3373 8.92817 15.1898 9.19081 14.9273L15.4273 8.69074C15.6906 8.42885 15.8384 8.07241 15.8384 7.70128V2.73853C15.8384 2.36709 15.6908 2.01086 15.4282 1.74822C15.1655 1.48557 14.8093 1.33801 14.4379 1.33801V1.33801ZM12.342 6.23493C12.1555 6.23915 11.97 6.20606 11.7965 6.13762C11.6229 6.06917 11.4648 5.96674 11.3314 5.83634C11.198 5.70594 11.092 5.55021 11.0196 5.37827C10.9472 5.20634 10.9098 5.02167 10.9098 4.83512C10.9098 4.64857 10.947 4.46388 11.0193 4.29191C11.0916 4.11994 11.1975 3.96415 11.3309 3.83369C11.4642 3.70322 11.6223 3.60071 11.7958 3.53218C11.9693 3.46365 12.1548 3.43047 12.3413 3.43459C12.7072 3.44268 13.0554 3.59371 13.3114 3.85533C13.5674 4.11696 13.7107 4.4684 13.7108 4.83442C13.7109 5.20044 13.5677 5.55195 13.3119 5.8137C13.056 6.07546 12.7079 6.22666 12.342 6.23493Z" fill="#40464C"/>
</svg>
