<svg width="10" height="10" viewBox="0 0 10 10" fill="none" xmlns="http://www.w3.org/2000/svg">
<g clip-path="url(#clip0_2402_3985)">
<path d="M5.11823 5.39448C6.40274 5.39448 7.4449 4.35233 7.4449 3.06782C7.4449 1.7833 6.40274 0.74115 5.11823 0.74115C3.83372 0.74115 2.79156 1.7833 2.79156 3.06782C2.79156 4.35233 3.83372 5.39448 5.11823 5.39448ZM7.18638 5.91152H6.29611C5.93741 6.07633 5.53832 6.17004 5.11823 6.17004C4.69814 6.17004 4.30067 6.07633 3.94036 5.91152H3.05008C1.90775 5.91152 0.981934 6.83734 0.981934 7.97967V8.23819C0.981934 8.66636 1.32932 9.01374 1.75749 9.01374H8.47897C8.90714 9.01374 9.25453 8.66636 9.25453 8.23819V7.97967C9.25453 6.83734 8.32871 5.91152 7.18638 5.91152Z" fill="#40464C"/>
</g>
<defs>
<clipPath id="clip0_2402_3985">
<rect width="8.27259" height="8.27259" fill="white" transform="translate(0.981934 0.74115)"/>
</clipPath>
</defs>
</svg>
